<mxfile host="app.diagrams.net" modified="2021-07-20T07:07:34.349Z" agent="5.0 (Windows NT 10.0; Win64; x64) AppleWebKit/537.36 (KHTML, like Gecko) Chrome/91.0.4472.124 Safari/537.36" etag="tntNtSFt9m3-N3fEmFNx" version="14.9.0" type="github">
  <diagram id="tpBG7AxIHuY1awPjeITL" name="Page-1">
    <mxGraphModel dx="1565" dy="398" grid="1" gridSize="10" guides="1" tooltips="1" connect="1" arrows="1" fold="1" page="1" pageScale="1" pageWidth="827" pageHeight="1169" background="#F1FAEE" math="0" shadow="0">
      <root>
        <mxCell id="0" />
        <mxCell id="1" parent="0" />
        <mxCell id="G1Jo3BN_IHVQqCNElftp-154" value="&lt;br&gt;分机RPC服务器&lt;br&gt;&lt;br&gt;&lt;br&gt;&lt;br&gt;&lt;br&gt;&lt;br&gt;&lt;br&gt;&lt;br&gt;&lt;br&gt;" style="rounded=0;whiteSpace=wrap;html=1;sketch=0;fontColor=#1D3557;strokeColor=#457B9D;dashed=1;fillColor=none;" vertex="1" parent="1">
          <mxGeometry x="665" y="153" width="690" height="160" as="geometry" />
        </mxCell>
        <mxCell id="G1Jo3BN_IHVQqCNElftp-156" value="查询上报" style="shape=ext;double=1;rounded=1;whiteSpace=wrap;html=1;sketch=0;" vertex="1" parent="1">
          <mxGeometry x="360" y="610" width="120" height="80" as="geometry" />
        </mxCell>
        <mxCell id="G1Jo3BN_IHVQqCNElftp-157" value="样本交换" style="shape=ext;double=1;rounded=1;whiteSpace=wrap;html=1;sketch=0;" vertex="1" parent="1">
          <mxGeometry x="390" y="490" width="120" height="80" as="geometry" />
        </mxCell>
        <mxCell id="G1Jo3BN_IHVQqCNElftp-160" value="" style="whiteSpace=wrap;html=1;rounded=0;sketch=0;fillColor=#ffff88;" vertex="1" parent="1">
          <mxGeometry x="570" y="410" width="40" height="110" as="geometry" />
        </mxCell>
        <mxCell id="G1Jo3BN_IHVQqCNElftp-159" value="" style="whiteSpace=wrap;html=1;rounded=0;sketch=0;fillColor=#ffff88;" vertex="1" parent="1">
          <mxGeometry x="-60" y="340" width="40" height="200" as="geometry" />
        </mxCell>
        <mxCell id="G1Jo3BN_IHVQqCNElftp-170" value="" style="group" vertex="1" connectable="0" parent="1">
          <mxGeometry x="-100" y="210" width="120" height="3288" as="geometry" />
        </mxCell>
        <mxCell id="G1Jo3BN_IHVQqCNElftp-158" value="客户端" style="shape=ext;double=1;rounded=1;whiteSpace=wrap;html=1;sketch=0;" vertex="1" parent="G1Jo3BN_IHVQqCNElftp-170">
          <mxGeometry width="120" height="80" as="geometry" />
        </mxCell>
        <mxCell id="G1Jo3BN_IHVQqCNElftp-161" value="" style="endArrow=none;dashed=1;html=1;fontColor=#1D3557;strokeColor=#457B9D;fillColor=#A8DADC;" edge="1" parent="G1Jo3BN_IHVQqCNElftp-170">
          <mxGeometry width="50" height="50" relative="1" as="geometry">
            <mxPoint x="60" y="3288" as="sourcePoint" />
            <mxPoint x="59.5" y="78" as="targetPoint" />
          </mxGeometry>
        </mxCell>
        <mxCell id="G1Jo3BN_IHVQqCNElftp-192" value="" style="endArrow=classic;html=1;fontColor=#1D3557;strokeColor=#457B9D;fillColor=#A8DADC;" edge="1" parent="G1Jo3BN_IHVQqCNElftp-170">
          <mxGeometry width="50" height="50" relative="1" as="geometry">
            <mxPoint x="80" y="280.3" as="sourcePoint" />
            <mxPoint x="450" y="280" as="targetPoint" />
          </mxGeometry>
        </mxCell>
        <mxCell id="G1Jo3BN_IHVQqCNElftp-193" value="上传到外链URL目录" style="edgeLabel;html=1;align=center;verticalAlign=middle;resizable=0;points=[];fontColor=#1D3557;" vertex="1" connectable="0" parent="G1Jo3BN_IHVQqCNElftp-192">
          <mxGeometry x="0.161" y="3" relative="1" as="geometry">
            <mxPoint x="-11" as="offset" />
          </mxGeometry>
        </mxCell>
        <mxCell id="G1Jo3BN_IHVQqCNElftp-171" value="" style="group" vertex="1" connectable="0" parent="1">
          <mxGeometry x="97" y="209" width="120" height="3287" as="geometry" />
        </mxCell>
        <mxCell id="LrFnlgKekaoEcTwpI7f7-3" value="文件上报服务" style="shape=ext;double=1;rounded=1;whiteSpace=wrap;html=1;sketch=0;fillColor=#f5f5f5;strokeColor=#666666;fontColor=#333333;" parent="G1Jo3BN_IHVQqCNElftp-171" vertex="1">
          <mxGeometry width="120" height="80" as="geometry" />
        </mxCell>
        <mxCell id="G1Jo3BN_IHVQqCNElftp-163" value="" style="endArrow=none;dashed=1;html=1;fontColor=#1D3557;strokeColor=#457B9D;fillColor=#A8DADC;" edge="1" parent="G1Jo3BN_IHVQqCNElftp-171">
          <mxGeometry width="50" height="50" relative="1" as="geometry">
            <mxPoint x="60.160000000000025" y="3287" as="sourcePoint" />
            <mxPoint x="59.660000000000025" y="77" as="targetPoint" />
          </mxGeometry>
        </mxCell>
        <mxCell id="G1Jo3BN_IHVQqCNElftp-178" value="" style="whiteSpace=wrap;html=1;rounded=0;sketch=0;fillColor=#ffff88;" vertex="1" parent="G1Jo3BN_IHVQqCNElftp-171">
          <mxGeometry x="40" y="132" width="40" height="110" as="geometry" />
        </mxCell>
        <mxCell id="G1Jo3BN_IHVQqCNElftp-172" value="" style="group" vertex="1" connectable="0" parent="1">
          <mxGeometry x="468" y="210" width="120" height="3289" as="geometry" />
        </mxCell>
        <mxCell id="G1Jo3BN_IHVQqCNElftp-155" value="&lt;font style=&quot;vertical-align: inherit&quot;&gt;&lt;font style=&quot;vertical-align: inherit&quot;&gt;&lt;font style=&quot;vertical-align: inherit&quot;&gt;&lt;font style=&quot;vertical-align: inherit&quot;&gt;&lt;font style=&quot;vertical-align: inherit&quot;&gt;&lt;font style=&quot;vertical-align: inherit&quot;&gt;中央RPC服务器&lt;/font&gt;&lt;/font&gt;&lt;/font&gt;&lt;/font&gt;&lt;/font&gt;&lt;/font&gt;" style="shape=ext;double=1;rounded=1;whiteSpace=wrap;html=1;sketch=0;fillColor=#e1d5e7;strokeColor=#9673a6;" vertex="1" parent="G1Jo3BN_IHVQqCNElftp-172">
          <mxGeometry width="120" height="80" as="geometry" />
        </mxCell>
        <mxCell id="G1Jo3BN_IHVQqCNElftp-164" value="" style="endArrow=none;dashed=1;html=1;fontColor=#1D3557;strokeColor=#457B9D;fillColor=#A8DADC;" edge="1" parent="G1Jo3BN_IHVQqCNElftp-172">
          <mxGeometry width="50" height="50" relative="1" as="geometry">
            <mxPoint x="59.78999999999985" y="3289" as="sourcePoint" />
            <mxPoint x="59.28999999999985" y="79" as="targetPoint" />
          </mxGeometry>
        </mxCell>
        <mxCell id="G1Jo3BN_IHVQqCNElftp-173" value="" style="group" vertex="1" connectable="0" parent="1">
          <mxGeometry x="664" y="210" width="120" height="3286" as="geometry" />
        </mxCell>
        <mxCell id="G1Jo3BN_IHVQqCNElftp-147" value="&lt;font style=&quot;vertical-align: inherit&quot;&gt;&lt;font style=&quot;vertical-align: inherit&quot;&gt;&lt;font style=&quot;vertical-align: inherit&quot;&gt;&lt;font style=&quot;vertical-align: inherit&quot;&gt;&lt;font style=&quot;vertical-align: inherit&quot;&gt;&lt;font style=&quot;vertical-align: inherit&quot;&gt;杀软扫描服务&lt;/font&gt;&lt;/font&gt;&lt;/font&gt;&lt;/font&gt;&lt;/font&gt;&lt;/font&gt;" style="shape=ext;double=1;rounded=1;whiteSpace=wrap;html=1;sketch=0;fillColor=#dae8fc;strokeColor=#6c8ebf;" vertex="1" parent="G1Jo3BN_IHVQqCNElftp-173">
          <mxGeometry width="120" height="80" as="geometry" />
        </mxCell>
        <mxCell id="G1Jo3BN_IHVQqCNElftp-166" value="" style="endArrow=none;dashed=1;html=1;fontColor=#1D3557;strokeColor=#457B9D;fillColor=#A8DADC;" edge="1" parent="G1Jo3BN_IHVQqCNElftp-173">
          <mxGeometry width="50" height="50" relative="1" as="geometry">
            <mxPoint x="59.789999999999964" y="3286" as="sourcePoint" />
            <mxPoint x="59.289999999999964" y="76" as="targetPoint" />
          </mxGeometry>
        </mxCell>
        <mxCell id="G1Jo3BN_IHVQqCNElftp-174" value="" style="group" vertex="1" connectable="0" parent="1">
          <mxGeometry x="859" y="210" width="120" height="3288" as="geometry" />
        </mxCell>
        <mxCell id="G1Jo3BN_IHVQqCNElftp-148" value="&lt;font style=&quot;vertical-align: inherit&quot;&gt;&lt;font style=&quot;vertical-align: inherit&quot;&gt;&lt;font style=&quot;vertical-align: inherit&quot;&gt;&lt;font style=&quot;vertical-align: inherit&quot;&gt;鉴定器服务&lt;/font&gt;&lt;/font&gt;&lt;/font&gt;&lt;/font&gt;" style="shape=ext;double=1;rounded=1;whiteSpace=wrap;html=1;sketch=0;fillColor=#d5e8d4;strokeColor=#82b366;" vertex="1" parent="G1Jo3BN_IHVQqCNElftp-174">
          <mxGeometry width="120" height="80" as="geometry" />
        </mxCell>
        <mxCell id="G1Jo3BN_IHVQqCNElftp-165" value="" style="endArrow=none;dashed=1;html=1;fontColor=#1D3557;strokeColor=#457B9D;fillColor=#A8DADC;" edge="1" parent="G1Jo3BN_IHVQqCNElftp-174">
          <mxGeometry width="50" height="50" relative="1" as="geometry">
            <mxPoint x="59.789999999999964" y="3288" as="sourcePoint" />
            <mxPoint x="59.289999999999964" y="78" as="targetPoint" />
          </mxGeometry>
        </mxCell>
        <mxCell id="G1Jo3BN_IHVQqCNElftp-175" value="" style="group" vertex="1" connectable="0" parent="1">
          <mxGeometry x="1047" y="210" width="120" height="3288" as="geometry" />
        </mxCell>
        <mxCell id="G1Jo3BN_IHVQqCNElftp-149" value="&lt;font style=&quot;vertical-align: inherit&quot;&gt;&lt;font style=&quot;vertical-align: inherit&quot;&gt;入库服务&lt;/font&gt;&lt;/font&gt;" style="shape=ext;double=1;rounded=1;whiteSpace=wrap;html=1;sketch=0;fillColor=#ffe6cc;strokeColor=#d79b00;" vertex="1" parent="G1Jo3BN_IHVQqCNElftp-175">
          <mxGeometry width="120" height="80" as="geometry" />
        </mxCell>
        <mxCell id="G1Jo3BN_IHVQqCNElftp-167" value="" style="endArrow=none;dashed=1;html=1;fontColor=#1D3557;strokeColor=#457B9D;fillColor=#A8DADC;" edge="1" parent="G1Jo3BN_IHVQqCNElftp-175">
          <mxGeometry width="50" height="50" relative="1" as="geometry">
            <mxPoint x="59.789999999999964" y="3288" as="sourcePoint" />
            <mxPoint x="59.289999999999964" y="78" as="targetPoint" />
          </mxGeometry>
        </mxCell>
        <mxCell id="G1Jo3BN_IHVQqCNElftp-176" value="" style="group" vertex="1" connectable="0" parent="1">
          <mxGeometry x="1235" y="210" width="120" height="3288" as="geometry" />
        </mxCell>
        <mxCell id="G1Jo3BN_IHVQqCNElftp-150" value="&lt;font style=&quot;vertical-align: inherit&quot;&gt;&lt;font style=&quot;vertical-align: inherit&quot;&gt;&lt;font style=&quot;vertical-align: inherit&quot;&gt;&lt;font style=&quot;vertical-align: inherit&quot;&gt;解包服务&lt;/font&gt;&lt;/font&gt;&lt;/font&gt;&lt;/font&gt;" style="shape=ext;double=1;rounded=1;whiteSpace=wrap;html=1;sketch=0;fillColor=#f8cecc;strokeColor=#b85450;" vertex="1" parent="G1Jo3BN_IHVQqCNElftp-176">
          <mxGeometry width="120" height="80" as="geometry" />
        </mxCell>
        <mxCell id="G1Jo3BN_IHVQqCNElftp-168" value="" style="endArrow=none;dashed=1;html=1;fontColor=#1D3557;strokeColor=#457B9D;fillColor=#A8DADC;" edge="1" parent="G1Jo3BN_IHVQqCNElftp-176">
          <mxGeometry width="50" height="50" relative="1" as="geometry">
            <mxPoint x="59.789999999999964" y="3288" as="sourcePoint" />
            <mxPoint x="59.289999999999964" y="78" as="targetPoint" />
          </mxGeometry>
        </mxCell>
        <mxCell id="G1Jo3BN_IHVQqCNElftp-177" value="" style="group" vertex="1" connectable="0" parent="1">
          <mxGeometry x="1421" y="209" width="120" height="3287" as="geometry" />
        </mxCell>
        <mxCell id="G1Jo3BN_IHVQqCNElftp-151" value="&lt;font style=&quot;vertical-align: inherit&quot;&gt;&lt;font style=&quot;vertical-align: inherit&quot;&gt;&lt;font style=&quot;vertical-align: inherit&quot;&gt;&lt;font style=&quot;vertical-align: inherit&quot;&gt;&lt;font style=&quot;vertical-align: inherit&quot;&gt;&lt;font style=&quot;vertical-align: inherit&quot;&gt;流程web服务&lt;/font&gt;&lt;/font&gt;&lt;/font&gt;&lt;/font&gt;&lt;/font&gt;&lt;/font&gt;" style="shape=ext;double=1;rounded=1;whiteSpace=wrap;html=1;sketch=0;fillColor=#e1d5e7;strokeColor=#9673a6;" vertex="1" parent="G1Jo3BN_IHVQqCNElftp-177">
          <mxGeometry width="120" height="80" as="geometry" />
        </mxCell>
        <mxCell id="G1Jo3BN_IHVQqCNElftp-169" value="" style="endArrow=none;dashed=1;html=1;fontColor=#1D3557;strokeColor=#457B9D;fillColor=#A8DADC;" edge="1" parent="G1Jo3BN_IHVQqCNElftp-177">
          <mxGeometry width="50" height="50" relative="1" as="geometry">
            <mxPoint x="59.789999999999964" y="3287" as="sourcePoint" />
            <mxPoint x="59.289999999999964" y="77" as="targetPoint" />
          </mxGeometry>
        </mxCell>
        <mxCell id="G1Jo3BN_IHVQqCNElftp-179" value="" style="endArrow=classic;html=1;fontColor=#1D3557;strokeColor=#457B9D;fillColor=#A8DADC;entryX=0.004;entryY=0.17;entryDx=0;entryDy=0;entryPerimeter=0;" edge="1" parent="1" target="G1Jo3BN_IHVQqCNElftp-178">
          <mxGeometry width="50" height="50" relative="1" as="geometry">
            <mxPoint x="-20" y="360" as="sourcePoint" />
            <mxPoint x="137" y="358" as="targetPoint" />
          </mxGeometry>
        </mxCell>
        <mxCell id="G1Jo3BN_IHVQqCNElftp-180" value="是否需要上传" style="edgeLabel;html=1;align=center;verticalAlign=middle;resizable=0;points=[];fontColor=#1D3557;" vertex="1" connectable="0" parent="G1Jo3BN_IHVQqCNElftp-179">
          <mxGeometry x="0.161" y="3" relative="1" as="geometry">
            <mxPoint x="-11" as="offset" />
          </mxGeometry>
        </mxCell>
        <mxCell id="G1Jo3BN_IHVQqCNElftp-181" value="" style="endArrow=classic;html=1;fontColor=#1D3557;strokeColor=#457B9D;fillColor=#A8DADC;exitX=-0.007;exitY=0.776;exitDx=0;exitDy=0;exitPerimeter=0;" edge="1" parent="1" source="G1Jo3BN_IHVQqCNElftp-178">
          <mxGeometry width="50" height="50" relative="1" as="geometry">
            <mxPoint x="-10" y="369.79999999999995" as="sourcePoint" />
            <mxPoint x="-20" y="426" as="targetPoint" />
          </mxGeometry>
        </mxCell>
        <mxCell id="G1Jo3BN_IHVQqCNElftp-182" value="是-发放ticket和URL外链" style="edgeLabel;html=1;align=center;verticalAlign=middle;resizable=0;points=[];fontColor=#1D3557;" vertex="1" connectable="0" parent="G1Jo3BN_IHVQqCNElftp-181">
          <mxGeometry x="0.161" y="3" relative="1" as="geometry">
            <mxPoint x="14" y="-3" as="offset" />
          </mxGeometry>
        </mxCell>
        <mxCell id="G1Jo3BN_IHVQqCNElftp-183" value="" style="endArrow=classic;html=1;fontColor=#1D3557;fillColor=#A8DADC;exitX=0.009;exitY=0.482;exitDx=0;exitDy=0;strokeColor=#FF6666;exitPerimeter=0;" edge="1" parent="1">
          <mxGeometry width="50" height="50" relative="1" as="geometry">
            <mxPoint x="137.3599999999999" y="392.02" as="sourcePoint" />
            <mxPoint x="-20" y="393" as="targetPoint" />
          </mxGeometry>
        </mxCell>
        <mxCell id="G1Jo3BN_IHVQqCNElftp-188" value="否-结束" style="edgeLabel;html=1;align=center;verticalAlign=middle;resizable=0;points=[];fontColor=#1D3557;" vertex="1" connectable="0" parent="G1Jo3BN_IHVQqCNElftp-183">
          <mxGeometry x="-0.1374" y="2" relative="1" as="geometry">
            <mxPoint as="offset" />
          </mxGeometry>
        </mxCell>
        <mxCell id="G1Jo3BN_IHVQqCNElftp-189" value="" style="group" vertex="1" connectable="0" parent="1">
          <mxGeometry x="290" y="210" width="120" height="3289" as="geometry" />
        </mxCell>
        <mxCell id="G1Jo3BN_IHVQqCNElftp-190" value="&lt;font style=&quot;vertical-align: inherit&quot;&gt;&lt;font style=&quot;vertical-align: inherit&quot;&gt;&lt;font style=&quot;vertical-align: inherit&quot;&gt;&lt;font style=&quot;vertical-align: inherit&quot;&gt;&lt;font style=&quot;vertical-align: inherit&quot;&gt;&lt;font style=&quot;vertical-align: inherit&quot;&gt;金山云/KS3&lt;/font&gt;&lt;/font&gt;&lt;/font&gt;&lt;/font&gt;&lt;/font&gt;&lt;/font&gt;" style="shape=ext;double=1;rounded=1;whiteSpace=wrap;html=1;sketch=0;fillColor=#cdeb8b;strokeColor=#36393d;" vertex="1" parent="G1Jo3BN_IHVQqCNElftp-189">
          <mxGeometry width="120" height="80" as="geometry" />
        </mxCell>
        <mxCell id="G1Jo3BN_IHVQqCNElftp-191" value="" style="endArrow=none;dashed=1;html=1;fontColor=#1D3557;strokeColor=#457B9D;fillColor=#A8DADC;" edge="1" parent="G1Jo3BN_IHVQqCNElftp-189">
          <mxGeometry width="50" height="50" relative="1" as="geometry">
            <mxPoint x="59.78999999999985" y="3289" as="sourcePoint" />
            <mxPoint x="59.28999999999985" y="79" as="targetPoint" />
          </mxGeometry>
        </mxCell>
      </root>
    </mxGraphModel>
  </diagram>
</mxfile>
